<?xml version="1.0" standalone="no"?><!DOCTYPE svg PUBLIC "-//W3C//DTD SVG 1.1//EN"
        "http://www.w3.org/Graphics/SVG/1.1/DTD/svg11.dtd">
<svg t="1610942613462" class="icon" viewBox="0 0 1024 1024" version="1.1" xmlns="http://www.w3.org/2000/svg" p-id="668"
     width="200" height="200">
    <defs>
        <style type="text/css"></style>
    </defs>
    <path d="M474.584615 53.169231A317.046154 317.046154 0 0 0 191.015385 334.769231a313.107692 313.107692 0 0 0 114.215384 267.815384 96.492308 96.492308 0 0 1 37.415385 76.8 78.769231 78.769231 0 0 0 80.738461 78.769231h177.23077a78.769231 78.769231 0 0 0 78.76923-78.769231 96.492308 96.492308 0 0 1 37.415385-76.8 313.107692 313.107692 0 0 0 116.184615-240.246153C834.953846 179.2 669.538462 33.476923 474.584615 53.169231zM649.846154 850.707692H374.153846a31.507692 31.507692 0 0 0-31.507692 29.538462 92.553846 92.553846 0 0 0 92.553846 92.553846h153.6a92.553846 92.553846 0 0 0 92.553846-92.553846 31.507692 31.507692 0 0 0-31.507692-29.538462z"
          p-id="669"></path>
</svg>
